<svg width="28" height="28" viewBox="0 0 28 28" fill="none" xmlns="http://www.w3.org/2000/svg">
<path d="M20.9125 0.875L15.4 9.1875H18.1562L23.6687 0.875H20.9125Z" fill="#428BC1"/>
<path d="M18.1563 0.875L12.6 9.1875H15.4L20.9125 0.875H18.1563Z" fill="#E8E8E8"/>
<path d="M15.4 0.875L9.84375 9.1875H12.6L18.1562 0.875H15.4Z" fill="#ED4C5C"/>
<path d="M8.92501 7.3501C8.66251 7.3501 8.44376 7.56885 8.44376 7.83135V11.9876C8.44376 12.2501 8.66251 12.4688 8.92501 12.4688H19.075C19.3375 12.4688 19.5563 12.2501 19.5563 11.9876V7.83135C19.5563 7.56885 19.3375 7.3501 19.075 7.3501H8.92501ZM18.5938 10.5438C18.5938 10.8063 18.375 11.0251 18.1125 11.0251H9.80001C9.53751 11.0251 9.31876 10.8063 9.31876 10.5438V8.70635C9.31876 8.44385 9.53751 8.2251 9.80001 8.2251H18.1125C18.375 8.2251 18.5938 8.44385 18.5938 8.70635V10.5438Z" fill="#FFC200"/>
<path d="M9.84375 9.1875H12.6L7.0875 0.875H4.33125L9.84375 9.1875Z" fill="#ED4C5C"/>
<path d="M12.6 9.1875H15.4L9.84374 0.875H7.08749L12.6 9.1875Z" fill="#E8E8E8"/>
<path opacity="0.5" d="M14.4813 2.2749L13.0813 4.33115L16.3188 9.1874H18.1563L18.5938 8.4874L14.4813 2.2749Z" fill="#3E4347"/>
<path d="M15.4 9.1875H18.1562L12.6 0.875H9.84375L15.4 9.1875Z" fill="#428BC1"/>
<path d="M14 27.125C18.76 27.125 22.6188 23.2662 22.6188 18.5062C22.6188 13.7462 18.76 9.88745 14 9.88745C9.24 9.88745 5.38126 13.7462 5.38126 18.5062C5.38126 23.2662 9.24 27.125 14 27.125Z" fill="#FFC200"/>
<path d="M14.1312 10.675C9.7125 10.675 6.16875 14.2625 6.16875 18.6375C6.16875 19.95 6.475 21.175 7.04375 22.2688C6.78125 21.3938 6.60625 20.475 6.60625 19.5125C6.60625 14.8313 10.1937 11.025 14.7875 10.675H14.1312Z" fill="#E68A00"/>
<path d="M20.125 13.5625C22.3563 17.5 21.2188 22.575 17.325 25.1562C16.5375 25.6812 15.6625 26.075 14.7875 26.3375C16.0125 26.2063 17.1938 25.7688 18.2875 25.025C21.9625 22.575 22.925 17.675 20.5188 14.0875L20.125 13.5625Z" fill="#FFE394"/>
<path d="M14 15.0063V12.2063L12.6 16.5813L13.2125 17.3688L14 15.0063Z" fill="#F2B200"/>
<path d="M14.7875 17.3688L15.4 16.5813L14 12.2063V15.0063L14.7875 17.3688Z" fill="#E68A00"/>
<path d="M15.225 18.8125L16.275 19.2938L19.9938 16.5813L17.2375 17.3688L15.225 18.8125Z" fill="#C47500"/>
<path d="M17.2375 17.3688L19.9938 16.5813H15.4L14.7875 17.3688H17.2375Z" fill="#FFE394"/>
<path d="M13.2125 17.3688L12.6 16.5813H8.00626L10.7625 17.3688H13.2125Z" fill="#FFD252"/>
<path d="M10.7625 17.3688L8.00626 16.5813L11.6813 19.2938L12.775 18.8125L10.7625 17.3688Z" fill="#FFDB75"/>
<path d="M15.225 18.8125L16.0125 21.175L17.7188 23.6687L16.275 19.2937L15.225 18.8125Z" fill="#E68A00"/>
<path d="M14 19.7312V20.9563L17.7188 23.6687L16.0125 21.175L14 19.7312ZM12.775 18.8125L11.6813 19.2937L10.2812 23.6687L11.9875 21.175L12.775 18.8125Z" fill="#F2B200"/>
<path d="M11.9875 21.175L10.2812 23.6687L14 20.9562V19.7312L11.9875 21.175Z" fill="#E68A00"/>
<path d="M14.7875 17.3688L14 15.0063L13.2125 17.3688H10.7625L12.775 18.8126L11.9875 21.1751L14 19.7313L16.0125 21.1751L15.225 18.8126L17.2375 17.3688H14.7875Z" fill="#FFCE31"/>
</svg>
